<?xml version="1.0" encoding="UTF-8"?>
<svg version="1.1" xmlns="http://www.w3.org/2000/svg" width="2200" height="397">
<path d="M0 0 C39.93 0 79.86 0 121 0 C121 26.4 121 52.8 121 80 C117.04 80 113.08 80 109 80 C109 124.22 109 168.44 109 214 C120.55 214 132.1 214 144 214 C144 169.78 144 125.56 144 80 C139.71 80 135.42 80 131 80 C131 53.6 131 27.2 131 0 C171.26 0 211.52 0 253 0 C253 26.4 253 52.8 253 80 C246.4 80 239.8 80 233 80 C233.02886795 81.95056808 233.0577359 83.90113617 233.08747864 85.91081238 C233.35130619 104.31630183 233.54680931 122.7214071 233.67355824 141.12836742 C233.74045695 150.59115477 233.8315776 160.05252617 233.98071289 169.5144043 C234.11071206 177.76616045 234.19425475 186.01689088 234.22315043 194.26964265 C234.24003096 198.63590559 234.27938979 202.99923555 234.37449074 207.36455345 C235.00655296 237.51724698 235.00655296 237.51724698 228.44012737 244.86799335 C225.78945109 247.25313671 223.01753456 249.09641859 220 251 C217.87942714 253.14801744 217.87942714 253.14801744 216.3125 255.1875 C212.90023361 259.20940207 209.15631201 262.85761946 205.40625 266.5625 C202.75295018 269.25025826 200.30313329 272.05983923 197.8515625 274.9296875 C194.86179643 278.27267488 191.64072813 281.3788432 188.4296875 284.5078125 C185.88411132 286.95286692 185.88411132 286.95286692 184.00204468 290.10624695 C182.3233762 292.11286607 181.38088222 292.9011999 178.82689285 293.56369972 C176.04870641 293.78970585 173.32496759 293.82200093 170.53759766 293.79223633 C169.48497238 293.80435654 168.43234711 293.81647675 167.3478241 293.82896423 C163.86932629 293.86046075 160.39264424 293.84785364 156.9140625 293.83203125 C154.49416622 293.8386132 152.07427388 293.84683022 149.65438843 293.85661316 C144.5818671 293.86997354 139.50997782 293.86110857 134.4375 293.8371582 C127.94146175 293.8085986 121.44724005 293.83860435 114.95136452 293.88579273 C109.95321133 293.91500645 104.95549098 293.91124704 99.95728683 293.89777184 C97.56272339 293.89561976 95.1681256 293.90411363 92.77363968 293.92350197 C89.42172009 293.94604672 86.07295331 293.92372325 82.72119141 293.88989258 C81.73498306 293.90563324 80.74877472 293.9213739 79.73268127 293.93759155 C74.61963218 293.83587095 71.7401912 293.32921005 68.02523804 289.67094421 C66.99015842 288.46976941 65.98080507 287.24588609 65 286 C63.96139653 284.78903274 62.92007884 283.58038338 61.875 282.375 C61.30523437 281.71242188 60.73546875 281.04984375 60.1484375 280.3671875 C57.36854721 277.30425384 54.44081152 274.4075914 51.5 271.5 C47.46832397 267.51356016 43.60788471 263.48825488 39.94140625 259.16015625 C36.71229014 255.56719607 33.24682158 252.20599366 29.79296875 248.83007812 C28.74497564 247.79861889 27.70933025 246.75441232 26.6884861 245.69607639 C25.06486483 244.0086899 25.06486483 244.0086899 23.40054893 242.68636227 C19.31353207 238.90944491 18.54990075 235.70248599 18.2784729 230.19789124 C18.23885755 227.39477829 18.27590425 224.59609723 18.31884766 221.79321289 C18.32054164 220.24540269 18.3195871 218.69758768 18.31619263 217.14978027 C18.31447536 212.96188602 18.34968055 208.77502876 18.39163637 204.58737493 C18.42921591 200.20588176 18.4326744 195.82436322 18.43978882 191.44273376 C18.45841653 183.15186035 18.5076252 174.86146324 18.56788576 166.57079929 C18.6350157 157.12952972 18.66795616 147.68823707 18.69805837 138.24678814 C18.76072632 118.83091485 18.86743328 99.41551322 19 80 C12.73 80 6.46 80 0 80 C0 53.6 0 27.2 0 0 Z " fill="#FEFEFE" transform="translate(381,52)"/>
<path d="M0 0 C77.22 0 154.44 0 234 0 C234 32.34 234 64.68 234 98 C204.63 98 175.26 98 145 98 C145 92.06 145 86.12 145 80 C133.12 80 121.24 80 109 80 C109 90.56 109 101.12 109 112 C130.45 112 151.9 112 174 112 C174 137.74 174 163.48 174 190 C152.1638323 190 152.1638323 190 143.08203125 189.78125 C142.08789719 189.75905396 141.09376312 189.73685791 140.06950378 189.71398926 C136.9837867 189.6446497 133.89814668 189.57239766 130.8125 189.5 C128.68294715 189.4516269 126.55338987 189.40344876 124.42382812 189.35546875 C119.28248649 189.23957376 114.1412597 189.11971332 109 189 C109 197.25 109 205.5 109 214 C115.27 214 121.54 214 128 214 C128 240.07 128 266.14 128 293 C85.76 293 43.52 293 0 293 C0 266.93 0 240.86 0 214 C6.6 214 13.2 214 20 214 C20 169.78 20 125.56 20 80 C13.4 80 6.8 80 0 80 C0 53.6 0 27.2 0 0 Z " fill="#FEFEFD" transform="translate(1,52)"/>
<path d="M0 0 C42.24 0 84.48 0 128 0 C128 26.4 128 52.8 128 80 C121.73 80 115.46 80 109 80 C109 124.22 109 168.44 109 214 C115.27 214 121.54 214 128 214 C128 240.07 128 266.14 128 293 C85.76 293 43.52 293 0 293 C0 266.93 0 240.86 0 214 C6.6 214 13.2 214 20 214 C20 169.78 20 125.56 20 80 C13.4 80 6.8 80 0 80 C0 53.6 0 27.2 0 0 Z " fill="#FEFEFE" transform="translate(244,52)"/>
<path d="M0 0 C39.93 0 79.86 0 121 0 C121 26.4 121 52.8 121 80 C117.04 80 113.08 80 109 80 C109 124.22 109 168.44 109 214 C120.55 214 132.1 214 144 214 C144 169.78 144 125.56 144 80 C139.71 80 135.42 80 131 80 C131 53.6 131 27.2 131 0 C171.26 0 211.52 0 253 0 C253 26.4 253 52.8 253 80 C246.4 80 239.8 80 233 80 C233.02886795 81.95056808 233.0577359 83.90113617 233.08747864 85.91081238 C233.35130619 104.31630183 233.54680931 122.7214071 233.67355824 141.12836742 C233.74045695 150.59115477 233.8315776 160.05252617 233.98071289 169.5144043 C234.11071206 177.76616045 234.19425475 186.01689088 234.22315043 194.26964265 C234.24003096 198.63590559 234.27938979 202.99923555 234.37449074 207.36455345 C235.00655296 237.51724698 235.00655296 237.51724698 228.44012737 244.86799335 C225.78945109 247.25313671 223.01753456 249.09641859 220 251 C217.87942714 253.14801744 217.87942714 253.14801744 216.3125 255.1875 C212.90023361 259.20940207 209.15631201 262.85761946 205.40625 266.5625 C202.75295018 269.25025826 200.30313329 272.05983923 197.8515625 274.9296875 C194.86179643 278.27267488 191.64072813 281.3788432 188.4296875 284.5078125 C185.88411132 286.95286692 185.88411132 286.95286692 184.00204468 290.10624695 C182.3233762 292.11286607 181.38088222 292.9011999 178.82689285 293.56369972 C176.04870641 293.78970585 173.32496759 293.82200093 170.53759766 293.79223633 C169.48497238 293.80435654 168.43234711 293.81647675 167.3478241 293.82896423 C163.86932629 293.86046075 160.39264424 293.84785364 156.9140625 293.83203125 C154.49416622 293.8386132 152.07427388 293.84683022 149.65438843 293.85661316 C144.5818671 293.86997354 139.50997782 293.86110857 134.4375 293.8371582 C127.94146175 293.8085986 121.44724005 293.83860435 114.95136452 293.88579273 C109.95321133 293.91500645 104.95549098 293.91124704 99.95728683 293.89777184 C97.56272339 293.89561976 95.1681256 293.90411363 92.77363968 293.92350197 C89.42172009 293.94604672 86.07295331 293.92372325 82.72119141 293.88989258 C81.73498306 293.90563324 80.74877472 293.9213739 79.73268127 293.93759155 C74.61963218 293.83587095 71.7401912 293.32921005 68.02523804 289.67094421 C66.99015842 288.46976941 65.98080507 287.24588609 65 286 C63.96139653 284.78903274 62.92007884 283.58038338 61.875 282.375 C61.30523437 281.71242188 60.73546875 281.04984375 60.1484375 280.3671875 C57.36854721 277.30425384 54.44081152 274.4075914 51.5 271.5 C47.46832397 267.51356016 43.60788471 263.48825488 39.94140625 259.16015625 C36.71229014 255.56719607 33.24682158 252.20599366 29.79296875 248.83007812 C28.74497564 247.79861889 27.70933025 246.75441232 26.6884861 245.69607639 C25.06486483 244.0086899 25.06486483 244.0086899 23.40054893 242.68636227 C19.31353207 238.90944491 18.54990075 235.70248599 18.2784729 230.19789124 C18.23885755 227.39477829 18.27590425 224.59609723 18.31884766 221.79321289 C18.32054164 220.24540269 18.3195871 218.69758768 18.31619263 217.14978027 C18.31447536 212.96188602 18.34968055 208.77502876 18.39163637 204.58737493 C18.42921591 200.20588176 18.4326744 195.82436322 18.43978882 191.44273376 C18.45841653 183.15186035 18.5076252 174.86146324 18.56788576 166.57079929 C18.6350157 157.12952972 18.66795616 147.68823707 18.69805837 138.24678814 C18.76072632 118.83091485 18.86743328 99.41551322 19 80 C12.73 80 6.46 80 0 80 C0 53.6 0 27.2 0 0 Z M10 9 C10 29.13 10 49.26 10 70 C16.27 70 22.54 70 29 70 C28.96447021 72.04413086 28.92894043 74.08826172 28.89233398 76.19433594 C28.56458492 95.49633971 28.32690734 114.79797488 28.17100525 134.10214233 C28.08871883 144.02592265 27.97667481 153.94765326 27.79296875 163.87011719 C27.63280573 172.52513065 27.53011126 181.17865922 27.49458408 189.83511353 C27.47383312 194.41387946 27.42557596 198.98840022 27.30831909 203.5657959 C25.87666341 225.14536914 25.87666341 225.14536914 34.49195862 243.89376831 C37.17002157 246.33124944 39.96206834 248.43543141 42.95950317 250.46234131 C45.89521808 252.67461015 48.12723984 255.3393713 50.46287537 258.16043091 C52.79781312 260.95479074 55.39493763 263.46058244 58 266 C62.01098982 269.95597624 65.86801964 273.96827333 69.5 278.28125 C70.2425 279.13203125 70.2425 279.13203125 71 280 C71.49016098 280.68215576 71.98032196 281.36431152 72.4853363 282.06713867 C76.33258768 285.02427501 80.00203871 284.62181278 84.73461914 284.64453125 C85.72215179 284.66439087 86.70968445 284.68425049 87.72714233 284.70471191 C90.99659373 284.76315978 94.26526807 284.79040205 97.53515625 284.8125 C99.81237299 284.83551628 102.08958958 284.85854709 104.36680603 284.8815918 C109.14585983 284.92362546 113.92464477 284.94699733 118.70385742 284.9609375 C124.80921147 284.98283066 130.91097545 285.07882201 137.01520634 285.19282532 C141.72269294 285.26758836 146.42932775 285.28816643 151.13735771 285.29428101 C153.38645411 285.30634066 155.63553963 285.33830076 157.88405037 285.39102173 C170.50224243 286.16023186 170.50224243 286.16023186 181.69406128 281.44189453 C184.55093189 278.58634671 186.7262239 275.33227455 189 272 C190.84329015 269.99168231 192.77780544 268.13706113 194.75 266.25 C197.74327081 263.29045618 200.65017127 260.33304959 203.375 257.125 C207.1509361 252.68597269 211.30778731 248.639528 215.47021484 244.56689453 C216.0111377 244.03435059 216.55206055 243.50180664 217.109375 242.953125 C217.59374023 242.48036133 218.07810547 242.00759766 218.57714844 241.52050781 C219.04668945 241.01874023 219.51623047 240.51697266 220 240 C220.51690557 239.44853931 221.03381113 238.89707863 221.5663805 238.32890701 C223.51091458 235.17002207 223.36914499 232.91598803 223.36076355 229.21697998 C223.36332682 228.53569259 223.3658901 227.8544052 223.36853105 227.15247273 C223.37347076 224.87061311 223.35697366 222.5894158 223.34057617 220.30761719 C223.33972994 218.67158016 223.34020497 217.03554198 223.34190369 215.39950562 C223.34276521 210.95763573 223.3251141 206.51600838 223.30418181 202.07419491 C223.28544114 197.43238997 223.28366663 192.79057961 223.28010559 188.14874268 C223.27077745 179.35857912 223.24615326 170.56852736 223.21605712 161.77841306 C223.18253704 151.77127131 223.16603312 141.76412426 223.15097082 131.75694036 C223.11960438 111.17122947 223.06622536 90.58562571 223 70 C229.6 70 236.2 70 243 70 C243 49.87 243 29.74 243 9 C210 9 177 9 143 9 C143 29.13 143 49.26 143 70 C146.63 70 150.26 70 154 70 C153.96285096 89.35822311 153.90301632 108.71624892 153.81609726 128.07431412 C153.77627033 137.06240391 153.74389645 146.05040568 153.72900391 155.03857422 C153.71600627 162.8717288 153.68909014 170.70469001 153.64538693 178.5377357 C153.6227294 182.68617673 153.60709187 186.83437887 153.60811615 190.98288727 C153.60886025 194.88673148 153.59101115 198.79004679 153.55883217 202.6937542 C153.55030566 204.12722551 153.54860188 205.56075596 153.55419731 206.99424171 C153.56081619 208.95030707 153.54059303 210.90640855 153.51898193 212.86236572 C153.51345118 214.50500082 153.51345118 214.50500082 153.50780869 216.18082047 C152.8807386 219.66209833 151.74975268 220.84470053 149 223 C146.83752441 223.50793457 146.83752441 223.50793457 144.47851562 223.51757812 C143.59079468 223.53018677 142.70307373 223.54279541 141.78845215 223.55578613 C140.83732544 223.54768921 139.88619873 223.53959229 138.90625 223.53125 C137.92257446 223.5350769 136.93889893 223.53890381 135.92541504 223.54284668 C133.84756445 223.54556627 131.76967965 223.53820182 129.69189453 223.52148438 C126.51126789 223.50007584 123.33290013 223.52128488 120.15234375 223.546875 C118.13280751 223.54423173 116.11327268 223.53910678 114.09375 223.53125 C113.14262329 223.53934692 112.19149658 223.54744385 111.21154785 223.55578613 C109.87996643 223.53687317 109.87996643 223.53687317 108.52148438 223.51757812 C107.74301147 223.51439575 106.96453857 223.51121338 106.16247559 223.50793457 C103.08331794 222.7846845 101.97355083 221.44639894 100 219 C99.49219131 216.18082047 99.49219131 216.18082047 99.48101807 212.86236572 C99.46710526 211.60315811 99.45319244 210.3439505 99.43885803 209.04658508 C99.44357097 207.65377678 99.44866492 206.26096973 99.45410156 204.86816406 C99.44536632 203.39960128 99.4348807 201.93104802 99.42277527 200.46250916 C99.39488818 196.47726036 99.39151117 192.49232169 99.39249516 188.50698948 C99.38936836 184.34156389 99.36375505 180.17627847 99.34051514 176.01092529 C99.29993364 168.12392446 99.27960941 160.23700635 99.26654124 152.34991717 C99.25067845 143.37047722 99.2122659 134.3911782 99.17194796 125.41181993 C99.08951963 106.94125783 99.03544588 88.470709 99 70 C102.63 70 106.26 70 110 70 C110 49.87 110 29.74 110 9 C77 9 44 9 10 9 Z " fill="#BB8F3C" transform="translate(381,52)"/>
<path d="M0 0 C77.22 0 154.44 0 234 0 C234 32.34 234 64.68 234 98 C204.63 98 175.26 98 145 98 C145 92.06 145 86.12 145 80 C133.12 80 121.24 80 109 80 C109 90.56 109 101.12 109 112 C130.45 112 151.9 112 174 112 C174 137.74 174 163.48 174 190 C152.1638323 190 152.1638323 190 143.08203125 189.78125 C142.08789719 189.75905396 141.09376312 189.73685791 140.06950378 189.71398926 C136.9837867 189.6446497 133.89814668 189.57239766 130.8125 189.5 C128.68294715 189.4516269 126.55338987 189.40344876 124.42382812 189.35546875 C119.28248649 189.23957376 114.1412597 189.11971332 109 189 C109 197.25 109 205.5 109 214 C115.27 214 121.54 214 128 214 C128 240.07 128 266.14 128 293 C85.76 293 43.52 293 0 293 C0 266.93 0 240.86 0 214 C6.6 214 13.2 214 20 214 C20 169.78 20 125.56 20 80 C13.4 80 6.8 80 0 80 C0 53.6 0 27.2 0 0 Z M8 9 C8 29.46 8 49.92 8 71 C14.93 71 21.86 71 29 71 C29 121.16 29 171.32 29 223 C22.4 223 15.8 223 9 223 C9 243.13 9 263.26 9 284 C44.97 284 80.94 284 118 284 C118 264.2 118 244.4 118 224 C111.73 224 105.46 224 99 224 C99 209.15 99 194.3 99 179 C120.45 179 141.9 179 164 179 C164 160.19 164 141.38 164 122 C142.55 122 121.1 122 99 122 C99 104.84 99 87.68 99 70 C117.48 70 135.96 70 155 70 C155 76.27 155 82.54 155 89 C177.77 89 200.54 89 224 89 C224 62.6 224 36.2 224 9 C152.72 9 81.44 9 8 9 Z " fill="#BA8C36" transform="translate(1,52)"/>
<path d="M0 0 C42.24 0 84.48 0 128 0 C128 26.4 128 52.8 128 80 C121.73 80 115.46 80 109 80 C109 124.22 109 168.44 109 214 C115.27 214 121.54 214 128 214 C128 240.07 128 266.14 128 293 C85.76 293 43.52 293 0 293 C0 266.93 0 240.86 0 214 C6.6 214 13.2 214 20 214 C20 169.78 20 125.56 20 80 C13.4 80 6.8 80 0 80 C0 53.6 0 27.2 0 0 Z M9 9 C9 29.46 9 49.92 9 71 C15.6 71 22.2 71 29 71 C29 121.49 29 171.98 29 224 C22.73 224 16.46 224 10 224 C10 243.8 10 263.6 10 284 C45.64 284 81.28 284 118 284 C118 264.2 118 244.4 118 224 C111.73 224 105.46 224 99 224 C99 173.18 99 122.36 99 70 C105.27 70 111.54 70 118 70 C118 49.87 118 29.74 118 9 C82.03 9 46.06 9 9 9 Z " fill="#BA8D38" transform="translate(244,52)"/>
<path d="M0 0 C6.35825377 4.1615654 10.8078612 9.65422721 13 17 C13 19.64 13 22.28 13 25 C6.73 25 0.46 25 -6 25 C-6.99 22.36 -7.98 19.72 -9 17 C-14.58000285 12.56461312 -21.12442529 12.3874296 -28 13 C-31.56656293 14.00411461 -34.34770109 15.34770109 -37 18 C-37.66672211 23.03712057 -37.66672211 23.03712057 -35.89746094 27.50439453 C-33.207353 29.62477554 -30.59941173 30.10140381 -27.27734375 30.90234375 C-26.61722794 31.06618057 -25.95711212 31.2300174 -25.2769928 31.39881897 C-23.16614332 31.92175498 -21.05230223 32.43080602 -18.9375 32.9375 C8.05134285 39.4505359 8.05134285 39.4505359 14.3125 48.25 C16.23633563 52.40266959 16.39352213 56.55295792 16.4375 61.0625 C16.4526062 62.07135254 16.4526062 62.07135254 16.46801758 63.10058594 C16.33202303 70.99019849 13.14680585 76.55837132 7.95703125 82.20703125 C0.04109815 89.45935319 -10.06936702 90.34573534 -20.3125 90.3125 C-21.29412109 90.32861328 -22.27574219 90.34472656 -23.28710938 90.36132812 C-33.70907708 90.36822552 -43.06607662 88.04059994 -51 81 C-56.88642753 73.76563003 -58 69.70150933 -58 60 C-51.73 60 -45.46 60 -39 60 C-38.01 63.465 -38.01 63.465 -37 67 C-32.19274817 71.80725183 -27.38372736 73.2884417 -20.6875 73.3125 C-15.06702049 73.22328604 -11.00687778 72.55067358 -6 70 C-3.94074319 66.91111478 -3.7609626 66.29064073 -3.875 62.8125 C-3.91625 61.554375 -3.9575 60.29625 -4 59 C-11.44264635 53.96105277 -19.85492796 52.67553123 -28.50976562 50.73242188 C-39.02699422 48.26276637 -48.88166999 45.49838645 -55 36 C-58.07101606 29.99755952 -57.90911264 22.19754351 -56.5 15.69140625 C-55.80943058 13.67855333 -55.00291553 11.87589869 -54 10 C-53.67128906 9.38382813 -53.34257813 8.76765625 -53.00390625 8.1328125 C-49.19259509 1.98723811 -43.53202547 -0.73856233 -36.8828125 -3.11328125 C-25.58033923 -5.69442957 -10.16083592 -6.1146459 0 0 Z " fill="#FFFFFF" transform="translate(1625,216)"/>
<path d="M0 0 C7.05835783 5.00015464 12.65154346 11.91046119 14.55859375 20.4921875 C14.55859375 22.4721875 14.55859375 24.4521875 14.55859375 26.4921875 C7.95859375 26.4921875 1.35859375 26.4921875 -5.44140625 26.4921875 C-6.76140625 23.5221875 -8.08140625 20.5521875 -9.44140625 17.4921875 C-15.79109639 12.30876698 -21.51582878 11.88865933 -29.44140625 12.4921875 C-34.92248072 14.25026799 -38.3283609 17.76735832 -41.44140625 22.4921875 C-46.45652105 32.61960924 -46.35585034 44.78665524 -43.44140625 55.4921875 C-41.07135445 61.96082512 -38.68752036 66.36913045 -32.44140625 69.4921875 C-26.80457262 71.37113204 -20.68303451 71.23939692 -15.06640625 69.3671875 C-9.58628766 65.45281708 -7.57536237 61.89405587 -5.44140625 55.4921875 C1.15859375 55.4921875 7.75859375 55.4921875 14.55859375 55.4921875 C13.32978614 65.3226484 9.71007284 73.50324202 2.55859375 80.4921875 C-5.99951618 86.55296501 -13.77338819 88.88689993 -24.19140625 88.8671875 C-25.51712646 88.86477051 -25.51712646 88.86477051 -26.86962891 88.86230469 C-33.67902011 88.73469897 -39.36397687 87.71625817 -45.44140625 84.4921875 C-46.49328125 83.9353125 -47.54515625 83.3784375 -48.62890625 82.8046875 C-59.14138345 74.16109514 -64.32485762 63.94465749 -66.1640625 50.4921875 C-67.51765878 35.85046997 -66.09531696 20.89125929 -57.19140625 8.7421875 C-43.49714596 -7.70833281 -18.21840162 -11.25168484 0 0 Z " fill="#FFFFFF" transform="translate(818.44140625,89.5078125)"/>
<path d="M0 0 C3.63 0 7.26 0 11 0 C11 96.69 11 193.38 11 293 C7.37 293 3.74 293 0 293 C0 196.31 0 99.62 0 0 Z " fill="#BF9444" transform="translate(689,52)"/>
<path d="M0 0 C0.89009766 -0.01160156 1.78019531 -0.02320313 2.69726562 -0.03515625 C9.96019123 -0.00332458 16.24593226 1.28412033 22.4375 5.1875 C27.74923092 10.6554583 28.01314835 16.08394573 28.0390625 23.3046875 C28.05464203 24.2538504 28.07022156 25.20301331 28.08627319 26.18093872 C28.13362079 29.20395071 28.16147477 32.22673587 28.1875 35.25 C28.22416819 38.26595883 28.26498972 41.28179443 28.31015015 44.29763794 C28.33704987 46.16969583 28.35853872 48.04184213 28.37368774 49.91403198 C28.43609081 55.14933674 28.81219264 60.1920845 29.5625 65.375 C30.2225 65.375 30.8825 65.375 31.5625 65.375 C31.5625 67.025 31.5625 68.675 31.5625 70.375 C24.9625 70.375 18.3625 70.375 11.5625 70.375 C10.9025 68.395 10.2425 66.415 9.5625 64.375 C8.881875 64.973125 8.20125 65.57125 7.5 66.1875 C1.79568224 70.4353962 -3.30282832 71.94107923 -10.375 71.875 C-11.0772168 71.87000488 -11.77943359 71.86500977 -12.50292969 71.85986328 C-18.31691054 71.66408362 -22.3352667 70.53135247 -26.4375 66.375 C-31.6935333 59.63649577 -32.17806316 53.70104585 -31.4375 45.375 C-29.75913455 39.27828695 -25.89586622 34.52520047 -20.4375 31.375 C-16.50967152 29.94778904 -12.53980503 29.14303244 -8.4375 28.375 C-7.74720703 28.24496582 -7.05691406 28.11493164 -6.34570312 27.98095703 C-0.40940747 26.86494396 -0.40940747 26.86494396 2.39428711 26.3762207 C5.76640372 26.01641715 5.76640372 26.01641715 8.5625 24.375 C8.27519945 22.03555264 7.94313221 19.7010857 7.5625 17.375 C1.14854177 15.44487368 -3.05049527 15.28470754 -9.4375 17.375 C-10.0975 19.685 -10.7575 21.995 -11.4375 24.375 C-17.3775 24.375 -23.3175 24.375 -29.4375 24.375 C-28.39698033 16.05084265 -27.46857339 11.47496142 -21.6875 5.5625 C-14.56970857 0.77167884 -8.37602874 -0.10870117 0 0 Z M-0.3125 40.125 C-1.39337891 40.36089844 -1.39337891 40.36089844 -2.49609375 40.6015625 C-6.82998725 41.6391429 -9.722274 42.59881165 -12.4375 46.375 C-13.14632303 49.28284881 -12.77721789 51.317539 -12.4375 54.375 C-10.89411909 56.54976401 -9.80084727 57.19332637 -7.4375 58.375 C-2.25488807 58.61777001 1.56801506 57.82826362 5.5625 54.4375 C8.20302051 51.94978739 9.51972757 50.51445741 9.66015625 46.7734375 C9.64855469 45.77570313 9.63695312 44.77796875 9.625 43.75 C9.61597656 42.74710937 9.60695313 41.74421875 9.59765625 40.7109375 C9.58605469 39.94007813 9.57445312 39.16921875 9.5625 38.375 C6.18613224 38.375 2.95698974 39.3495812 -0.3125 40.125 Z " fill="#FFFFFF" transform="translate(1457.4375,234.625)"/>
<path d="M0 0 C0.89009766 -0.01160156 1.78019531 -0.02320313 2.69726562 -0.03515625 C9.96019123 -0.00332458 16.24593226 1.28412033 22.4375 5.1875 C27.74923092 10.6554583 28.01314835 16.08394573 28.0390625 23.3046875 C28.05464203 24.2538504 28.07022156 25.20301331 28.08627319 26.18093872 C28.13362079 29.20395071 28.16147477 32.22673587 28.1875 35.25 C28.22416819 38.26595883 28.26498972 41.28179443 28.31015015 44.29763794 C28.33704987 46.16969583 28.35853872 48.04184213 28.37368774 49.91403198 C28.43609081 55.14933674 28.81219264 60.1920845 29.5625 65.375 C30.2225 65.375 30.8825 65.375 31.5625 65.375 C31.5625 67.025 31.5625 68.675 31.5625 70.375 C24.9625 70.375 18.3625 70.375 11.5625 70.375 C10.9025 68.395 10.2425 66.415 9.5625 64.375 C8.881875 64.973125 8.20125 65.57125 7.5 66.1875 C1.79568224 70.4353962 -3.30282832 71.94107923 -10.375 71.875 C-11.0772168 71.87000488 -11.77943359 71.86500977 -12.50292969 71.85986328 C-18.31691054 71.66408362 -22.3352667 70.53135247 -26.4375 66.375 C-31.6935333 59.63649577 -32.17806316 53.70104585 -31.4375 45.375 C-29.75913455 39.27828695 -25.89586622 34.52520047 -20.4375 31.375 C-16.50967152 29.94778904 -12.53980503 29.14303244 -8.4375 28.375 C-7.74720703 28.24496582 -7.05691406 28.11493164 -6.34570312 27.98095703 C-0.40940747 26.86494396 -0.40940747 26.86494396 2.39428711 26.3762207 C5.76640372 26.01641715 5.76640372 26.01641715 8.5625 24.375 C8.27519945 22.03555264 7.94313221 19.7010857 7.5625 17.375 C1.14854177 15.44487368 -3.05049527 15.28470754 -9.4375 17.375 C-10.0975 19.685 -10.7575 21.995 -11.4375 24.375 C-17.3775 24.375 -23.3175 24.375 -29.4375 24.375 C-28.39698033 16.05084265 -27.46857339 11.47496142 -21.6875 5.5625 C-14.56970857 0.77167884 -8.37602874 -0.10870117 0 0 Z M-0.3125 40.125 C-1.39337891 40.36089844 -1.39337891 40.36089844 -2.49609375 40.6015625 C-6.82998725 41.6391429 -9.722274 42.59881165 -12.4375 46.375 C-13.14632303 49.28284881 -12.77721789 51.317539 -12.4375 54.375 C-10.89411909 56.54976401 -9.80084727 57.19332637 -7.4375 58.375 C-2.25488807 58.61777001 1.56801506 57.82826362 5.5625 54.4375 C8.20302051 51.94978739 9.51972757 50.51445741 9.66015625 46.7734375 C9.64855469 45.77570313 9.63695312 44.77796875 9.625 43.75 C9.61597656 42.74710937 9.60695313 41.74421875 9.59765625 40.7109375 C9.58605469 39.94007813 9.57445312 39.16921875 9.5625 38.375 C6.18613224 38.375 2.95698974 39.3495812 -0.3125 40.125 Z " fill="#FFFFFF" transform="translate(1159.4375,234.625)"/>
<path d="M0 0 C0.89009766 -0.01160156 1.78019531 -0.02320313 2.69726562 -0.03515625 C9.96019123 -0.00332458 16.24593226 1.28412033 22.4375 5.1875 C27.74923092 10.6554583 28.01314835 16.08394573 28.0390625 23.3046875 C28.05464203 24.2538504 28.07022156 25.20301331 28.08627319 26.18093872 C28.13362079 29.20395071 28.16147477 32.22673587 28.1875 35.25 C28.22416819 38.26595883 28.26498972 41.28179443 28.31015015 44.29763794 C28.33704987 46.16969583 28.35853872 48.04184213 28.37368774 49.91403198 C28.43609081 55.14933674 28.81219264 60.1920845 29.5625 65.375 C30.2225 65.375 30.8825 65.375 31.5625 65.375 C31.5625 67.025 31.5625 68.675 31.5625 70.375 C24.9625 70.375 18.3625 70.375 11.5625 70.375 C10.9025 68.395 10.2425 66.415 9.5625 64.375 C8.881875 64.973125 8.20125 65.57125 7.5 66.1875 C1.79568224 70.4353962 -3.30282832 71.94107923 -10.375 71.875 C-11.0772168 71.87000488 -11.77943359 71.86500977 -12.50292969 71.85986328 C-18.31691054 71.66408362 -22.3352667 70.53135247 -26.4375 66.375 C-31.6935333 59.63649577 -32.17806316 53.70104585 -31.4375 45.375 C-29.75913455 39.27828695 -25.89586622 34.52520047 -20.4375 31.375 C-16.50967152 29.94778904 -12.53980503 29.14303244 -8.4375 28.375 C-7.74720703 28.24496582 -7.05691406 28.11493164 -6.34570312 27.98095703 C-0.40940747 26.86494396 -0.40940747 26.86494396 2.39428711 26.3762207 C5.76640372 26.01641715 5.76640372 26.01641715 8.5625 24.375 C8.27519945 22.03555264 7.94313221 19.7010857 7.5625 17.375 C1.14854177 15.44487368 -3.05049527 15.28470754 -9.4375 17.375 C-10.0975 19.685 -10.7575 21.995 -11.4375 24.375 C-17.3775 24.375 -23.3175 24.375 -29.4375 24.375 C-28.39698033 16.05084265 -27.46857339 11.47496142 -21.6875 5.5625 C-14.56970857 0.77167884 -8.37602874 -0.10870117 0 0 Z M-0.3125 40.125 C-1.39337891 40.36089844 -1.39337891 40.36089844 -2.49609375 40.6015625 C-6.82998725 41.6391429 -9.722274 42.59881165 -12.4375 46.375 C-13.14632303 49.28284881 -12.77721789 51.317539 -12.4375 54.375 C-10.89411909 56.54976401 -9.80084727 57.19332637 -7.4375 58.375 C-2.25488807 58.61777001 1.56801506 57.82826362 5.5625 54.4375 C8.20302051 51.94978739 9.51972757 50.51445741 9.66015625 46.7734375 C9.64855469 45.77570313 9.63695312 44.77796875 9.625 43.75 C9.61597656 42.74710937 9.60695313 41.74421875 9.59765625 40.7109375 C9.58605469 39.94007813 9.57445312 39.16921875 9.5625 38.375 C6.18613224 38.375 2.95698974 39.3495812 -0.3125 40.125 Z " fill="#FFFFFF" transform="translate(909.4375,234.625)"/>
<path d="M0 0 C5.22188344 4.65301904 8.15605511 12.37422045 9.8125 19 C9.8125 24.28 9.8125 29.56 9.8125 35 C-5.0375 35 -19.8875 35 -35.1875 35 C-34.1975 37.97 -33.2075 40.94 -32.1875 44 C-31.8575 44.99 -31.5275 45.98 -31.1875 47 C-26.11751912 49.65102874 -20.77480405 49.85571323 -15.1875 49 C-12.03527425 46.77009471 -12.03527425 46.77009471 -10.1875 44 C-9.1875 43 -9.1875 43 -7.32983398 42.88647461 C-6.14369507 42.89432983 -6.14369507 42.89432983 -4.93359375 42.90234375 C-3.65258789 42.90717773 -3.65258789 42.90717773 -2.34570312 42.91210938 C-1.44787109 42.92048828 -0.55003906 42.92886719 0.375 42.9375 C1.27669922 42.94201172 2.17839844 42.94652344 3.10742188 42.95117188 C5.34251314 42.96299775 7.57747437 42.9794778 9.8125 43 C7.47573271 50.80285281 4.81650613 56.82314473 -2.31640625 61.3515625 C-8.44249702 64.48794046 -13.507326 65.20825047 -20.3125 65.25 C-21.12976562 65.270625 -21.94703125 65.29125 -22.7890625 65.3125 C-31.69522011 65.36886809 -38.84650775 63.25358254 -45.39453125 57.09765625 C-54.34757722 46.62317763 -53.94499166 33.64609738 -53.4140625 20.61621094 C-52.69751118 12.34189631 -48.54161594 4.3754014 -42.1875 -1 C-29.11716169 -10.12620538 -12.81717515 -8.04214911 0 0 Z M-30.1875 12 C-33.54343621 16.17224501 -34.1875 17.48009407 -34.1875 23 C-25.9375 23 -17.6875 23 -9.1875 23 C-10.05619872 15.88814311 -10.05619872 15.88814311 -14.1875 11 C-19.27847112 7.31343471 -25.48427781 8.1865766 -30.1875 12 Z " fill="#FFFFFF" transform="translate(2021.1875,241)"/>
<path d="M0 0 C5.22188344 4.65301904 8.15605511 12.37422045 9.8125 19 C9.8125 24.28 9.8125 29.56 9.8125 35 C-5.0375 35 -19.8875 35 -35.1875 35 C-34.1975 37.97 -33.2075 40.94 -32.1875 44 C-31.8575 44.99 -31.5275 45.98 -31.1875 47 C-26.11751912 49.65102874 -20.77480405 49.85571323 -15.1875 49 C-12.03527425 46.77009471 -12.03527425 46.77009471 -10.1875 44 C-9.1875 43 -9.1875 43 -7.32983398 42.88647461 C-6.14369507 42.89432983 -6.14369507 42.89432983 -4.93359375 42.90234375 C-3.65258789 42.90717773 -3.65258789 42.90717773 -2.34570312 42.91210938 C-1.44787109 42.92048828 -0.55003906 42.92886719 0.375 42.9375 C1.27669922 42.94201172 2.17839844 42.94652344 3.10742188 42.95117188 C5.34251314 42.96299775 7.57747437 42.9794778 9.8125 43 C7.47573271 50.80285281 4.81650613 56.82314473 -2.31640625 61.3515625 C-8.44249702 64.48794046 -13.507326 65.20825047 -20.3125 65.25 C-21.12976562 65.270625 -21.94703125 65.29125 -22.7890625 65.3125 C-31.69522011 65.36886809 -38.84650775 63.25358254 -45.39453125 57.09765625 C-54.34757722 46.62317763 -53.94499166 33.64609738 -53.4140625 20.61621094 C-52.69751118 12.34189631 -48.54161594 4.3754014 -42.1875 -1 C-29.11716169 -10.12620538 -12.81717515 -8.04214911 0 0 Z M-30.1875 12 C-33.54343621 16.17224501 -34.1875 17.48009407 -34.1875 23 C-25.9375 23 -17.6875 23 -9.1875 23 C-10.05619872 15.88814311 -10.05619872 15.88814311 -14.1875 11 C-19.27847112 7.31343471 -25.48427781 8.1865766 -30.1875 12 Z " fill="#FFFFFF" transform="translate(1806.1875,241)"/>
<path d="M0 0 C5.22188344 4.65301904 8.15605511 12.37422045 9.8125 19 C9.8125 24.28 9.8125 29.56 9.8125 35 C-5.0375 35 -19.8875 35 -35.1875 35 C-34.1975 37.97 -33.2075 40.94 -32.1875 44 C-31.8575 44.99 -31.5275 45.98 -31.1875 47 C-26.11751912 49.65102874 -20.77480405 49.85571323 -15.1875 49 C-12.03527425 46.77009471 -12.03527425 46.77009471 -10.1875 44 C-9.1875 43 -9.1875 43 -7.32983398 42.88647461 C-6.14369507 42.89432983 -6.14369507 42.89432983 -4.93359375 42.90234375 C-3.65258789 42.90717773 -3.65258789 42.90717773 -2.34570312 42.91210938 C-1.44787109 42.92048828 -0.55003906 42.92886719 0.375 42.9375 C1.27669922 42.94201172 2.17839844 42.94652344 3.10742188 42.95117188 C5.34251314 42.96299775 7.57747437 42.9794778 9.8125 43 C7.47573271 50.80285281 4.81650613 56.82314473 -2.31640625 61.3515625 C-8.44249702 64.48794046 -13.507326 65.20825047 -20.3125 65.25 C-21.12976562 65.270625 -21.94703125 65.29125 -22.7890625 65.3125 C-31.69522011 65.36886809 -38.84650775 63.25358254 -45.39453125 57.09765625 C-54.34757722 46.62317763 -53.94499166 33.64609738 -53.4140625 20.61621094 C-52.69751118 12.34189631 -48.54161594 4.3754014 -42.1875 -1 C-29.11716169 -10.12620538 -12.81717515 -8.04214911 0 0 Z M-30.1875 12 C-33.54343621 16.17224501 -34.1875 17.48009407 -34.1875 23 C-25.9375 23 -17.6875 23 -9.1875 23 C-10.05619872 15.88814311 -10.05619872 15.88814311 -14.1875 11 C-19.27847112 7.31343471 -25.48427781 8.1865766 -30.1875 12 Z " fill="#FFFFFF" transform="translate(1080.1875,113)"/>
<path d="M0 0 C5.22188344 4.65301904 8.15605511 12.37422045 9.8125 19 C9.8125 24.28 9.8125 29.56 9.8125 35 C-5.0375 35 -19.8875 35 -35.1875 35 C-34.1975 37.97 -33.2075 40.94 -32.1875 44 C-31.8575 44.99 -31.5275 45.98 -31.1875 47 C-26.11751912 49.65102874 -20.77480405 49.85571323 -15.1875 49 C-12.03527425 46.77009471 -12.03527425 46.77009471 -10.1875 44 C-9.1875 43 -9.1875 43 -7.32983398 42.88647461 C-6.14369507 42.89432983 -6.14369507 42.89432983 -4.93359375 42.90234375 C-3.65258789 42.90717773 -3.65258789 42.90717773 -2.34570312 42.91210938 C-1.44787109 42.92048828 -0.55003906 42.92886719 0.375 42.9375 C1.27669922 42.94201172 2.17839844 42.94652344 3.10742188 42.95117188 C5.34251314 42.96299775 7.57747437 42.9794778 9.8125 43 C7.47573271 50.80285281 4.81650613 56.82314473 -2.31640625 61.3515625 C-8.44249702 64.48794046 -13.507326 65.20825047 -20.3125 65.25 C-21.12976563 65.270625 -21.94703125 65.29125 -22.7890625 65.3125 C-31.69522011 65.36886809 -38.84650775 63.25358254 -45.39453125 57.09765625 C-54.34757722 46.62317763 -53.94499166 33.64609738 -53.4140625 20.61621094 C-52.69751118 12.34189631 -48.54161594 4.3754014 -42.1875 -1 C-29.11716169 -10.12620538 -12.81717515 -8.04214911 0 0 Z M-30.1875 12 C-33.54343621 16.17224501 -34.1875 17.48009407 -34.1875 23 C-25.9375 23 -17.6875 23 -9.1875 23 C-10.05619872 15.88814311 -10.05619872 15.88814311 -14.1875 11 C-19.27847112 7.31343471 -25.48427781 8.1865766 -30.1875 12 Z " fill="#FFFFFF" transform="translate(893.1875,113)"/>
<path d="M0 0 C7.39727958 5.20102365 11.33628958 11.88000824 13.64453125 20.55859375 C14.64058451 30.83869799 15.31068245 42.54906141 9.64453125 51.55859375 C9.20882813 52.28046875 8.773125 53.00234375 8.32421875 53.74609375 C3.40102948 61.06362097 -2.84938243 64.57413168 -11.35546875 66.55859375 C-22.93036659 67.6866729 -33.40377261 67.25485156 -43.10546875 60.43359375 C-49.40233674 55.2356556 -53.78115024 47.48604203 -54.5769043 39.27319336 C-55.50148979 18.74108684 -55.50148979 18.74108684 -50.35546875 10.55859375 C-49.91976563 9.83671875 -49.4840625 9.11484375 -49.03515625 8.37109375 C-38.88915125 -6.70930713 -14.96044309 -9.15489801 0 0 Z M-32.10546875 15.99609375 C-36.12060199 21.24565307 -36.49448095 28.1415841 -36.234375 34.53515625 C-35.37256005 40.98544137 -33.37915162 45.35125935 -28.35546875 49.55859375 C-24.58898674 52.00171722 -20.97093651 51.83772445 -16.640625 51.23046875 C-11.81008041 49.81020607 -8.5106322 46.50136865 -5.98046875 42.24609375 C-4.06479728 34.00870644 -3.14257534 24.96825464 -7.65234375 17.375 C-10.40578585 13.96158337 -12.97259022 11.54474142 -17.35546875 10.55859375 C-23.65172512 9.88877924 -27.44293301 11.86339162 -32.10546875 15.99609375 Z " fill="#FFFFFF" transform="translate(1329.35546875,239.44140625)"/>
<path d="M0 0 C7.39727958 5.20102365 11.33628958 11.88000824 13.64453125 20.55859375 C14.64058451 30.83869799 15.31068245 42.54906141 9.64453125 51.55859375 C9.20882813 52.28046875 8.773125 53.00234375 8.32421875 53.74609375 C3.40102948 61.06362097 -2.84938243 64.57413168 -11.35546875 66.55859375 C-22.93036659 67.6866729 -33.40377261 67.25485156 -43.10546875 60.43359375 C-49.40233674 55.2356556 -53.78115024 47.48604203 -54.5769043 39.27319336 C-55.50148979 18.74108684 -55.50148979 18.74108684 -50.35546875 10.55859375 C-49.91976563 9.83671875 -49.4840625 9.11484375 -49.03515625 8.37109375 C-38.88915125 -6.70930713 -14.96044309 -9.15489801 0 0 Z M-32.10546875 15.99609375 C-36.12060199 21.24565307 -36.49448095 28.1415841 -36.234375 34.53515625 C-35.37256005 40.98544137 -33.37915162 45.35125935 -28.35546875 49.55859375 C-24.58898674 52.00171722 -20.97093651 51.83772445 -16.640625 51.23046875 C-11.81008041 49.81020607 -8.5106322 46.50136865 -5.98046875 42.24609375 C-4.06479728 34.00870644 -3.14257534 24.96825464 -7.65234375 17.375 C-10.40578585 13.96158337 -12.97259022 11.54474142 -17.35546875 10.55859375 C-23.65172512 9.88877924 -27.44293301 11.86339162 -32.10546875 15.99609375 Z " fill="#FFFFFF" transform="translate(1277.35546875,111.44140625)"/>
<path d="M0 0 C0.89912109 -0.01611328 1.79824219 -0.03222656 2.72460938 -0.04882812 C11.38532929 -0.0550904 18.8192221 1.60535951 25.24609375 7.64453125 C29.60375352 12.68713483 29.6875 16.7283394 29.6875 23.3125 C23.7475 23.3125 17.8075 23.3125 11.6875 23.3125 C11.0275 21.0025 10.3675 18.6925 9.6875 16.3125 C6.45474299 15.35719355 3.49074361 15.14789622 0.125 15.125 C-1.30005859 15.10373047 -1.30005859 15.10373047 -2.75390625 15.08203125 C-5.55475243 15.12891112 -5.55475243 15.12891112 -8.3125 17.3125 C-8.56280977 19.89630177 -8.56280977 19.89630177 -8.3125 22.3125 C-2.88143461 24.47272151 2.35165556 25.99893867 8.0625 27.1875 C16.04324352 28.98290671 24.05120796 30.96466799 29.8125 37.1875 C33.2776943 42.81844074 32.51920405 50.02018164 31.6875 56.3125 C29.76756978 62.11632576 26.00785465 65.27426298 20.84765625 68.3046875 C10.56566831 73.101709 -3.92484392 73.29006271 -14.6875 69.6875 C-20.47751066 67.07739996 -24.70569458 63.69679191 -28.25 58.4375 C-29.3125 55.3125 -29.3125 55.3125 -29.3125 47.3125 C-23.3725 47.3125 -17.4325 47.3125 -11.3125 47.3125 C-10.3225 49.2925 -9.3325 51.2725 -8.3125 53.3125 C-4.36990238 57.00868527 -0.05798626 56.63460327 5.06640625 56.61328125 C7.76759067 56.30330927 9.43510534 55.82268681 11.6875 54.3125 C12.49921228 51.75730079 12.49921228 51.75730079 12.6875 49.3125 C7.2969847 45.39728362 0.99579579 44.63498329 -5.38867188 43.29492188 C-14.35173783 41.30955458 -20.86434179 38.90690235 -26.3125 31.3125 C-28.65524258 26.62701484 -27.8034336 20.3947785 -27.3125 15.3125 C-25.2654687 9.60375323 -21.20912276 5.71015661 -16.3125 2.3125 C-10.91008861 -0.04898351 -5.79030792 -0.02048941 0 0 Z " fill="#FFFFFF" transform="translate(1053.3125,234.6875)"/>
<path d="M0 0 C4.71626052 2.93595025 8.21520137 7.22997013 10.3125 12.375 C10.55300903 14.98199463 10.55300903 14.98199463 10.53955078 17.96972656 C10.53939972 19.09058655 10.53924866 20.21144653 10.53909302 21.36627197 C10.52877045 22.57055847 10.51844788 23.77484497 10.5078125 25.015625 C10.5049826 26.25294373 10.50215271 27.49026245 10.49923706 28.76507568 C10.489942 32.04651541 10.47198705 35.32775754 10.4498291 38.60913086 C10.42933048 41.96075622 10.42039724 45.31239007 10.41015625 48.6640625 C10.38810027 55.23446221 10.35357232 61.80469275 10.3125 68.375 C4.3725 68.375 -1.5675 68.375 -7.6875 68.375 C-7.70208252 66.97741455 -7.71666504 65.5798291 -7.73168945 64.13989258 C-7.78970831 58.94936678 -7.86694163 53.75927315 -7.94995117 48.5690918 C-7.98318351 46.3237205 -8.01122069 44.078266 -8.03393555 41.83276367 C-8.06751202 38.60299257 -8.11983073 35.37398273 -8.17578125 32.14453125 C-8.18217117 31.14227005 -8.1885611 30.14000885 -8.19514465 29.1073761 C-8.33045802 22.2536368 -8.33045802 22.2536368 -11.6875 16.375 C-14.44796455 14.12573259 -15.98477268 14.38443723 -19.625 14.5 C-23.58321688 15.13390438 -25.89061629 16.41359372 -28.6875 19.375 C-31.32582696 24.16227744 -31.03592535 29.16603531 -31.1015625 34.48828125 C-31.12092865 35.45783249 -31.1402948 36.42738373 -31.1602478 37.42631531 C-31.21987436 40.51328828 -31.2663614 43.60029888 -31.3125 46.6875 C-31.35069534 48.78452118 -31.38974798 50.88152694 -31.4296875 52.97851562 C-31.52556209 58.11055131 -31.60965577 63.24266043 -31.6875 68.375 C-37.6275 68.375 -43.5675 68.375 -49.6875 68.375 C-49.6875 45.935 -49.6875 23.495 -49.6875 0.375 C-44.0775 0.375 -38.4675 0.375 -32.6875 0.375 C-32.3575 2.355 -32.0275 4.335 -31.6875 6.375 C-31.14480469 5.88128906 -30.60210938 5.38757813 -30.04296875 4.87890625 C-29.32753906 4.23824219 -28.61210938 3.59757813 -27.875 2.9375 C-27.16730469 2.29941406 -26.45960937 1.66132813 -25.73046875 1.00390625 C-19.86966252 -3.66905015 -6.57469212 -3.04711693 0 0 Z " fill="#FFFFFF" transform="translate(1876.6875,236.625)"/>
<path d="M0 0 C4.71626052 2.93595025 8.21520137 7.22997013 10.3125 12.375 C10.55300903 14.98199463 10.55300903 14.98199463 10.53955078 17.96972656 C10.53939972 19.09058655 10.53924866 20.21144653 10.53909302 21.36627197 C10.52877045 22.57055847 10.51844788 23.77484497 10.5078125 25.015625 C10.5049826 26.25294373 10.50215271 27.49026245 10.49923706 28.76507568 C10.489942 32.04651541 10.47198705 35.32775754 10.4498291 38.60913086 C10.42933048 41.96075622 10.42039724 45.31239007 10.41015625 48.6640625 C10.38810027 55.23446221 10.35357232 61.80469275 10.3125 68.375 C4.3725 68.375 -1.5675 68.375 -7.6875 68.375 C-7.70208252 66.97741455 -7.71666504 65.5798291 -7.73168945 64.13989258 C-7.78970831 58.94936678 -7.86694163 53.75927315 -7.94995117 48.5690918 C-7.98318351 46.3237205 -8.01122069 44.078266 -8.03393555 41.83276367 C-8.06751202 38.60299257 -8.11983073 35.37398273 -8.17578125 32.14453125 C-8.18217117 31.14227005 -8.1885611 30.14000885 -8.19514465 29.1073761 C-8.33045802 22.2536368 -8.33045802 22.2536368 -11.6875 16.375 C-14.44796455 14.12573259 -15.98477268 14.38443723 -19.625 14.5 C-23.58321688 15.13390438 -25.89061629 16.41359372 -28.6875 19.375 C-31.32582696 24.16227744 -31.03592535 29.16603531 -31.1015625 34.48828125 C-31.12092865 35.45783249 -31.1402948 36.42738373 -31.1602478 37.42631531 C-31.21987436 40.51328828 -31.2663614 43.60029888 -31.3125 46.6875 C-31.35069534 48.78452118 -31.38974798 50.88152694 -31.4296875 52.97851562 C-31.52556209 58.11055131 -31.60965577 63.24266043 -31.6875 68.375 C-37.6275 68.375 -43.5675 68.375 -49.6875 68.375 C-49.6875 45.935 -49.6875 23.495 -49.6875 0.375 C-44.0775 0.375 -38.4675 0.375 -32.6875 0.375 C-32.3575 2.355 -32.0275 4.335 -31.6875 6.375 C-31.14480469 5.88128906 -30.60210938 5.38757813 -30.04296875 4.87890625 C-29.32753906 4.23824219 -28.61210938 3.59757813 -27.875 2.9375 C-27.16730469 2.29941406 -26.45960937 1.66132813 -25.73046875 1.00390625 C-19.86966252 -3.66905015 -6.57469212 -3.04711693 0 0 Z " fill="#FFFFFF" transform="translate(1404.6875,236.625)"/>
<path d="M0 0 C4.71626052 2.93595025 8.21520137 7.22997013 10.3125 12.375 C10.55300903 14.98199463 10.55300903 14.98199463 10.53955078 17.96972656 C10.53939972 19.09058655 10.53924866 20.21144653 10.53909302 21.36627197 C10.52877045 22.57055847 10.51844788 23.77484497 10.5078125 25.015625 C10.5049826 26.25294373 10.50215271 27.49026245 10.49923706 28.76507568 C10.489942 32.04651541 10.47198705 35.32775754 10.4498291 38.60913086 C10.42933048 41.96075622 10.42039724 45.31239007 10.41015625 48.6640625 C10.38810027 55.23446221 10.35357232 61.80469275 10.3125 68.375 C4.3725 68.375 -1.5675 68.375 -7.6875 68.375 C-7.70208252 66.97741455 -7.71666504 65.5798291 -7.73168945 64.13989258 C-7.78970831 58.94936678 -7.86694163 53.75927315 -7.94995117 48.5690918 C-7.98318351 46.3237205 -8.01122069 44.078266 -8.03393555 41.83276367 C-8.06751202 38.60299257 -8.11983073 35.37398273 -8.17578125 32.14453125 C-8.18217117 31.14227005 -8.1885611 30.14000885 -8.19514465 29.1073761 C-8.33045802 22.2536368 -8.33045802 22.2536368 -11.6875 16.375 C-14.44796455 14.12573259 -15.98477268 14.38443723 -19.625 14.5 C-23.58321688 15.13390438 -25.89061629 16.41359372 -28.6875 19.375 C-31.32582696 24.16227744 -31.03592535 29.16603531 -31.1015625 34.48828125 C-31.12092865 35.45783249 -31.1402948 36.42738373 -31.1602478 37.42631531 C-31.21987436 40.51328828 -31.2663614 43.60029888 -31.3125 46.6875 C-31.35069534 48.78452118 -31.38974798 50.88152694 -31.4296875 52.97851562 C-31.52556209 58.11055131 -31.60965577 63.24266043 -31.6875 68.375 C-37.6275 68.375 -43.5675 68.375 -49.6875 68.375 C-49.6875 45.935 -49.6875 23.495 -49.6875 0.375 C-44.0775 0.375 -38.4675 0.375 -32.6875 0.375 C-32.3575 2.355 -32.0275 4.335 -31.6875 6.375 C-31.14480469 5.88128906 -30.60210938 5.38757813 -30.04296875 4.87890625 C-29.32753906 4.23824219 -28.61210938 3.59757813 -27.875 2.9375 C-27.16730469 2.29941406 -26.45960938 1.66132813 -25.73046875 1.00390625 C-19.86966252 -3.66905015 -6.57469212 -3.04711693 0 0 Z " fill="#FFFFFF" transform="translate(1001.6875,236.625)"/>
<path d="M0 0 C4.71626052 2.93595025 8.21520137 7.22997013 10.3125 12.375 C10.55300903 14.98199463 10.55300903 14.98199463 10.53955078 17.96972656 C10.53939972 19.09058655 10.53924866 20.21144653 10.53909302 21.36627197 C10.52877045 22.57055847 10.51844788 23.77484497 10.5078125 25.015625 C10.5049826 26.25294373 10.50215271 27.49026245 10.49923706 28.76507568 C10.489942 32.04651541 10.47198705 35.32775754 10.4498291 38.60913086 C10.42933048 41.96075622 10.42039724 45.31239007 10.41015625 48.6640625 C10.38810027 55.23446221 10.35357232 61.80469275 10.3125 68.375 C4.3725 68.375 -1.5675 68.375 -7.6875 68.375 C-7.70208252 66.97741455 -7.71666504 65.5798291 -7.73168945 64.13989258 C-7.78970831 58.94936678 -7.86694163 53.75927315 -7.94995117 48.5690918 C-7.98318351 46.3237205 -8.01122069 44.078266 -8.03393555 41.83276367 C-8.06751202 38.60299257 -8.11983073 35.37398273 -8.17578125 32.14453125 C-8.18217117 31.14227005 -8.1885611 30.14000885 -8.19514465 29.1073761 C-8.33045802 22.2536368 -8.33045802 22.2536368 -11.6875 16.375 C-14.44796455 14.12573259 -15.98477268 14.38443723 -19.625 14.5 C-23.58321688 15.13390438 -25.89061629 16.41359372 -28.6875 19.375 C-31.32582696 24.16227744 -31.03592535 29.16603531 -31.1015625 34.48828125 C-31.12092865 35.45783249 -31.1402948 36.42738373 -31.1602478 37.42631531 C-31.21987436 40.51328828 -31.2663614 43.60029888 -31.3125 46.6875 C-31.35069534 48.78452118 -31.38974798 50.88152694 -31.4296875 52.97851562 C-31.52556209 58.11055131 -31.60965577 63.24266043 -31.6875 68.375 C-37.6275 68.375 -43.5675 68.375 -49.6875 68.375 C-49.6875 45.935 -49.6875 23.495 -49.6875 0.375 C-44.0775 0.375 -38.4675 0.375 -32.6875 0.375 C-32.3575 2.355 -32.0275 4.335 -31.6875 6.375 C-31.14480469 5.88128906 -30.60210938 5.38757813 -30.04296875 4.87890625 C-29.32753906 4.23824219 -28.61210938 3.59757812 -27.875 2.9375 C-27.16730469 2.29941406 -26.45960938 1.66132812 -25.73046875 1.00390625 C-19.86966252 -3.66905015 -6.57469212 -3.04711693 0 0 Z " fill="#FFFFFF" transform="translate(963.6875,108.625)"/>
<path d="M0 0 C24.42 0 48.84 0 74 0 C74 5.61 74 11.22 74 17 C65.09 17 56.18 17 47 17 C47 41.75 47 66.5 47 92 C40.73 92 34.46 92 28 92 C28 67.25 28 42.5 28 17 C18.76 17 9.52 17 0 17 C0 11.39 0 5.78 0 0 Z " fill="#FFFFFF" transform="translate(751,213)"/>
<path d="M0 0 C6.82336245 4.12244815 10.92033751 9.31416254 12.875 17.1328125 C12.875 19.1128125 12.875 21.0928125 12.875 23.1328125 C6.605 23.1328125 0.335 23.1328125 -6.125 23.1328125 C-7.115 20.8228125 -8.105 18.5128125 -9.125 16.1328125 C-12.26881258 13.25846957 -13.82741439 13.1328125 -18.125 13.1328125 C-22.39243532 13.87357486 -24.46159338 15.686051 -27.125 19.1328125 C-31.49511154 26.99901327 -30.41188601 36.77867791 -28.125 45.1328125 C-26.24497597 48.70963816 -26.24497597 48.70963816 -23.375 51.4453125 C-19.15171107 52.7357619 -15.51622858 52.6387138 -11.375 51.1328125 C-8.23685892 48.65654533 -8.23685892 48.65654533 -6.125 41.1328125 C0.145 41.1328125 6.415 41.1328125 12.875 41.1328125 C11.59455367 51.37638315 9.36593082 57.03491249 1.1640625 63.4765625 C-6.82440789 69.08479477 -15.76042618 69.72326487 -25.26171875 68.67578125 C-31.5889131 67.47594494 -37.60393047 64.7794673 -42.125 60.1328125 C-50.35557752 47.58298147 -51.16890445 33.04912035 -48.4375 18.4609375 C-47.54052233 15.81485337 -46.52964447 13.54390005 -45.125 11.1328125 C-44.70089844 10.39160156 -44.27679687 9.65039062 -43.83984375 8.88671875 C-34.90662057 -4.67485961 -13.8919396 -6.8977339 0 0 Z " fill="#FFFFFF" transform="translate(1949.125,237.8671875)"/>
<path d="M0 0 C6.82336245 4.12244815 10.92033751 9.31416254 12.875 17.1328125 C12.875 19.1128125 12.875 21.0928125 12.875 23.1328125 C6.605 23.1328125 0.335 23.1328125 -6.125 23.1328125 C-7.115 20.8228125 -8.105 18.5128125 -9.125 16.1328125 C-12.26881258 13.25846957 -13.82741439 13.1328125 -18.125 13.1328125 C-22.39243532 13.87357486 -24.46159338 15.686051 -27.125 19.1328125 C-31.49511154 26.99901327 -30.41188601 36.77867791 -28.125 45.1328125 C-26.24497597 48.70963816 -26.24497597 48.70963816 -23.375 51.4453125 C-19.15171107 52.7357619 -15.51622858 52.6387138 -11.375 51.1328125 C-8.23685892 48.65654533 -8.23685892 48.65654533 -6.125 41.1328125 C0.145 41.1328125 6.415 41.1328125 12.875 41.1328125 C11.59455367 51.37638315 9.36593082 57.03491249 1.1640625 63.4765625 C-6.82440789 69.08479477 -15.76042618 69.72326487 -25.26171875 68.67578125 C-31.5889131 67.47594494 -37.60393047 64.7794673 -42.125 60.1328125 C-50.35557752 47.58298147 -51.16890445 33.04912035 -48.4375 18.4609375 C-47.54052233 15.81485337 -46.52964447 13.54390005 -45.125 11.1328125 C-44.70089844 10.39160156 -44.27679687 9.65039062 -43.83984375 8.88671875 C-34.90662057 -4.67485961 -13.8919396 -6.8977339 0 0 Z " fill="#FFFFFF" transform="translate(1699.125,237.8671875)"/>
<path d="M0 0 C0 4.95 0 9.9 0 15 C-1.464375 15.144375 -2.92875 15.28875 -4.4375 15.4375 C-7.51846698 15.53495826 -7.51846698 15.53495826 -10 17 C-10.36760731 19.32817964 -10.70241581 21.6618385 -11 24 C-7.37 24 -3.74 24 0 24 C0 28.29 0 32.58 0 37 C-3.63 37 -7.26 37 -11 37 C-11 55.15 -11 73.3 -11 92 C-16.94 92 -22.88 92 -29 92 C-29 73.85 -29 55.7 -29 37 C-32.3 37 -35.6 37 -39 37 C-39 32.71 -39 28.42 -39 24 C-35.7 24 -32.4 24 -29 24 C-29.05220703 22.69675781 -29.05220703 22.69675781 -29.10546875 21.3671875 C-29.28592003 13.68511877 -29.31472186 8.61606022 -23.9375 2.75 C-16.3376584 -1.77756521 -8.49188449 -1.08870314 0 0 Z " fill="#FFFFFF" transform="translate(1217,85)"/>
<path d="M0 0 C5.94 0 11.88 0 18 0 C18 5.94 18 11.88 18 18 C21.63 18 25.26 18 29 18 C29 22.29 29 26.58 29 31 C25.37 31 21.74 31 18 31 C18.11822835 36.2145927 18.24247541 41.428994 18.37231445 46.64331055 C18.41563934 48.41735937 18.45731619 50.19144923 18.49731445 51.96557617 C18.5550762 54.51493705 18.61875362 57.0640918 18.68359375 59.61328125 C18.70030624 60.40712723 18.71701874 61.20097321 18.73423767 62.01887512 C18.82117718 65.24683077 18.97250366 67.91751099 20 71 C22.97 71.33 25.94 71.66 29 72 C29 76.62 29 81.24 29 86 C25.79115216 86.08127476 22.58438239 86.14063141 19.375 86.1875 C18.47136719 86.21263672 17.56773438 86.23777344 16.63671875 86.26367188 C11.38498496 86.32117261 7.39219212 86.2231933 3 83 C-0.6199899 77.59129653 -0.3924457 72.61696053 -0.29296875 66.3515625 C-0.28872391 65.33903412 -0.28447906 64.32650574 -0.28010559 63.28329468 C-0.26337302 60.06358752 -0.22573026 56.84451656 -0.1875 53.625 C-0.17244618 51.43620698 -0.158759 49.24740411 -0.14648438 47.05859375 C-0.11348715 41.70548571 -0.06174174 36.35285056 0 31 C-2.97 31 -5.94 31 -9 31 C-9 26.71 -9 22.42 -9 18 C-6.03 18 -3.06 18 0 18 C0 12.06 0 6.12 0 0 Z " fill="#FFFFFF" transform="translate(1204,219)"/>
<path d="M0 0 C5.94 0 11.88 0 18 0 C18 5.94 18 11.88 18 18 C21.63 18 25.26 18 29 18 C29 22.29 29 26.58 29 31 C25.37 31 21.74 31 18 31 C18.11822835 36.2145927 18.24247541 41.428994 18.37231445 46.64331055 C18.41563934 48.41735937 18.45731619 50.19144923 18.49731445 51.96557617 C18.5550762 54.51493705 18.61875362 57.0640918 18.68359375 59.61328125 C18.70030624 60.40712723 18.71701874 61.20097321 18.73423767 62.01887512 C18.82117718 65.24683077 18.97250366 67.91751099 20 71 C22.97 71.33 25.94 71.66 29 72 C29 76.62 29 81.24 29 86 C25.79115216 86.08127476 22.58438239 86.14063141 19.375 86.1875 C18.47136719 86.21263672 17.56773437 86.23777344 16.63671875 86.26367188 C11.38498496 86.32117261 7.39219212 86.2231933 3 83 C-0.6199899 77.59129653 -0.3924457 72.61696053 -0.29296875 66.3515625 C-0.28872391 65.33903412 -0.28447906 64.32650574 -0.28010559 63.28329468 C-0.26337302 60.06358752 -0.22573026 56.84451656 -0.1875 53.625 C-0.17244618 51.43620698 -0.158759 49.24740411 -0.14648438 47.05859375 C-0.11348715 41.70548571 -0.06174174 36.35285056 0 31 C-2.97 31 -5.94 31 -9 31 C-9 26.71 -9 22.42 -9 18 C-6.03 18 -3.06 18 0 18 C0 12.06 0 6.12 0 0 Z " fill="#FFFFFF" transform="translate(993,91)"/>
<path d="M0 0 C5.94 0 11.88 0 18 0 C18 30.03 18 60.06 18 91 C12.06 91 6.12 91 0 91 C0 60.97 0 30.94 0 0 Z " fill="#FFFFFF" transform="translate(1501,214)"/>
<path d="M0 0 C5.94 0 11.88 0 18 0 C18 30.03 18 60.06 18 91 C12.06 91 6.12 91 0 91 C0 60.97 0 30.94 0 0 Z " fill="#FFFFFF" transform="translate(1098,214)"/>
<path d="M0 0 C0 6.6 0 13.2 0 20 C-1.85625 20.0825 -3.7125 20.165 -5.625 20.25 C-11.01935573 20.70801134 -14.05899531 21.26641661 -18 25 C-20.49154329 29.57938938 -20.34493045 34.15629193 -20.4140625 39.23828125 C-20.43342865 40.11904831 -20.4527948 40.99981537 -20.4727478 41.90727234 C-20.53232851 44.70891766 -20.57884265 47.51060456 -20.625 50.3125 C-20.66319959 52.21681438 -20.70225247 54.12111185 -20.7421875 56.02539062 C-20.83961209 60.68350367 -20.91935077 65.34144564 -21 70 C-26.94 70 -32.88 70 -39 70 C-39 47.56 -39 25.12 -39 2 C-33.39 2 -27.78 2 -22 2 C-21.67 4.64 -21.34 7.28 -21 10 C-19.9171875 8.3603125 -19.9171875 8.3603125 -18.8125 6.6875 C-13.47262696 -0.61969469 -8.6793917 -0.31371295 0 0 Z " fill="#FFFFFF" transform="translate(873,235)"/>
<path d="M0 0 C0 6.6 0 13.2 0 20 C-1.85625 20.0825 -3.7125 20.165 -5.625 20.25 C-11.01935573 20.70801134 -14.05899531 21.26641661 -18 25 C-20.49154329 29.57938938 -20.34493045 34.15629193 -20.4140625 39.23828125 C-20.43342865 40.11904831 -20.4527948 40.99981537 -20.4727478 41.90727234 C-20.53232851 44.70891766 -20.57884265 47.51060456 -20.625 50.3125 C-20.66319959 52.21681438 -20.70225247 54.12111185 -20.7421875 56.02539062 C-20.83961209 60.68350367 -20.91935077 65.34144564 -21 70 C-26.94 70 -32.88 70 -39 70 C-39 47.56 -39 25.12 -39 2 C-33.39 2 -27.78 2 -22 2 C-21.67 4.64 -21.34 7.28 -21 10 C-19.9171875 8.3603125 -19.9171875 8.3603125 -18.8125 6.6875 C-13.47262696 -0.61969469 -8.6793917 -0.31371295 0 0 Z " fill="#FFFFFF" transform="translate(1342,107)"/>
<path d="M0 0 C0 6.6 0 13.2 0 20 C-1.85625 20.0825 -3.7125 20.165 -5.625 20.25 C-11.01935573 20.70801134 -14.05899531 21.26641661 -18 25 C-20.49154329 29.57938938 -20.34493045 34.15629193 -20.4140625 39.23828125 C-20.43342865 40.11904831 -20.4527948 40.99981537 -20.4727478 41.90727234 C-20.53232851 44.70891766 -20.57884265 47.51060456 -20.625 50.3125 C-20.66319959 52.21681438 -20.70225247 54.12111185 -20.7421875 56.02539062 C-20.83961209 60.68350367 -20.91935077 65.34144564 -21 70 C-26.94 70 -32.88 70 -39 70 C-39 47.56 -39 25.12 -39 2 C-33.39 2 -27.78 2 -22 2 C-21.67 4.64 -21.34 7.28 -21 10 C-19.9171875 8.3603125 -19.9171875 8.3603125 -18.8125 6.6875 C-13.47262696 -0.61969469 -8.6793917 -0.31371295 0 0 Z " fill="#FFFFFF" transform="translate(1141,107)"/>
<path d="M0 0 C5.94 0 11.88 0 18 0 C18 22.44 18 44.88 18 68 C12.06 68 6.12 68 0 68 C0 45.56 0 23.12 0 0 Z " fill="#FFFFFF" transform="translate(1723,237)"/>
<path d="M0 0 C5.94 0 11.88 0 18 0 C18 22.44 18 44.88 18 68 C12.06 68 6.12 68 0 68 C0 45.56 0 23.12 0 0 Z " fill="#FFFFFF" transform="translate(1244,237)"/>
<path d="M0 0 C5.94 0 11.88 0 18 0 C18 5.61 18 11.22 18 17 C12.06 17 6.12 17 0 17 C0 11.39 0 5.78 0 0 Z " fill="#FFFFFF" transform="translate(1723,213)"/>
<path d="M0 0 C5.94 0 11.88 0 18 0 C18 5.61 18 11.22 18 17 C12.06 17 6.12 17 0 17 C0 11.39 0 5.78 0 0 Z " fill="#FFFFFF" transform="translate(1244,213)"/>
<path d="M0 0 C2 1 2 1 2 1 Z " fill="#A2ABB7" transform="translate(1117,301)"/>
</svg>
