<?xml version="1.0" encoding="iso-8859-1"?>
<!-- Uploaded to: SVG Repo, www.svgrepo.com, Generator: SVG Repo Mixer Tools -->
<svg version="1.1" id="Layer_1" xmlns="http://www.w3.org/2000/svg" xmlns:xlink="http://www.w3.org/1999/xlink" 
	 viewBox="0 0 312.461 312.461" xml:space="preserve">
<g>
	<path style="fill:#28D2E4;" d="M304.96,174.82v94.97c0,5.52-4.48,10-10,10H17.5c-5.52,0-10-4.48-10-10v-94.97h117.48v22.05h62.5
		v-22.05H304.96z"/>
	<path style="fill:#13829B;" d="M304.96,79.85v94.97H187.48v-22.05h-62.5v22.05H7.5V79.85c0-5.52,4.48-10,10-10h277.46
		C300.48,69.85,304.96,74.33,304.96,79.85z"/>
	<rect x="124.98" y="152.771" style="fill:#FFDB77;" width="62.5" height="44.1"/>
	<path style="fill:#22313F;" d="M294.961,62.35h-68.199V32.67c0-4.142-3.358-7.5-7.5-7.5H93.199c-4.142,0-7.5,3.358-7.5,7.5v29.68
		H17.5C7.851,62.35,0,70.201,0,79.85c0,8.345,0,181.61,0,189.94c0,9.649,7.851,17.5,17.5,17.5h277.461c9.649,0,17.5-7.851,17.5-17.5
		c0-8.323,0-181.588,0-189.94C312.461,70.201,304.61,62.35,294.961,62.35z M100.699,40.17h111.063v22.179H100.699V40.17z M15,79.85
		c0-1.379,1.122-2.5,2.5-2.5h277.461c1.379,0,2.5,1.121,2.5,2.5v87.47H194.98v-14.55c0-4.143-3.357-7.5-7.5-7.5h-62.5
		c-4.142,0-7.5,3.357-7.5,7.5v14.55H15V79.85z M132.48,174.82v-14.55h47.5v14.55v14.55h-47.5V174.82z M297.461,269.79
		c0,1.379-1.121,2.5-2.5,2.5H17.5c-1.378,0-2.5-1.121-2.5-2.5v-87.47h102.48v14.55c0,4.143,3.358,7.5,7.5,7.5h62.5
		c4.143,0,7.5-3.357,7.5-7.5v-14.55h102.481V269.79z"/>
</g>
</svg>